<?xml version="1.0" standalone="no"?>
<!DOCTYPE svg PUBLIC "-//W3C//DTD SVG 20010904//EN"
 "http://www.w3.org/TR/2001/REC-SVG-20010904/DTD/svg10.dtd">
<svg version="1.0" xmlns="http://www.w3.org/2000/svg"
 width="606.000000pt" height="606.000000pt" viewBox="0 0 606.000000 606.000000"
 preserveAspectRatio="xMidYMid meet">
<metadata>
Created by potrace 1.14, written by Peter Selinger 2001-2017
</metadata>
<g transform="translate(0.000000,606.000000) scale(0.100000,-0.100000)"
fill="#000000" stroke="none">
<path d="M1716 6052 c-3 -5 -7 -19 -10 -33 -2 -13 -7 -31 -10 -39 -3 -8 -8
-26 -10 -40 -3 -14 -21 -88 -41 -165 -19 -77 -37 -149 -39 -160 -2 -11 -13
-53 -24 -92 -12 -40 -19 -73 -16 -73 3 0 0 -8 -5 -17 -5 -10 -11 -31 -14 -48
-3 -16 -13 -58 -22 -92 -9 -35 -18 -72 -20 -83 -2 -11 -6 -24 -9 -29 -4 -6
380 -9 955 -9 528 0 963 -2 965 -5 3 -2 -14 -76 -36 -163 -23 -88 -43 -167
-45 -177 -2 -10 -7 -27 -10 -37 -3 -10 -7 -27 -9 -37 -2 -10 -20 -81 -41 -158
-20 -77 -38 -151 -41 -165 -3 -14 -8 -34 -11 -45 -4 -11 -8 -24 -9 -30 -1 -5
-7 -30 -14 -55 -7 -25 -13 -49 -14 -55 -1 -5 -5 -19 -9 -30 -3 -11 -8 -31 -11
-45 -2 -14 -9 -44 -16 -66 l-12 -41 -207 -57 c-113 -32 -213 -59 -221 -62 -18
-4 -571 -158 -755 -209 -71 -20 -137 -38 -145 -40 -14 -4 -250 -69 -675 -186
-104 -29 -193 -57 -197 -63 -3 -5 -27 -93 -53 -195 -26 -102 -48 -193 -51
-201 -4 -18 -24 -99 -29 -120 -2 -8 -29 -111 -59 -229 -31 -118 -54 -216 -52
-219 2 -2 37 6 78 17 40 11 109 30 153 42 184 50 258 70 415 114 91 25 181 50
200 55 64 16 142 38 385 105 132 36 299 82 370 102 72 19 177 48 235 64 58 16
146 40 195 54 50 13 105 28 123 34 30 9 36 7 33 -12 -1 -5 -26 -102 -56 -216
-30 -114 -56 -218 -59 -232 -3 -13 -13 -51 -21 -84 -9 -33 -17 -67 -19 -75 -7
-30 -138 -536 -152 -590 -9 -30 -17 -63 -19 -73 -2 -10 -38 -150 -79 -310
-103 -397 -126 -488 -132 -517 -3 -14 -8 -34 -11 -45 -4 -11 -8 -24 -9 -30 -1
-5 -18 -73 -38 -150 -20 -78 -38 -151 -41 -163 -2 -12 -6 -26 -9 -30 -3 -5 -7
-19 -9 -33 -3 -13 -30 -123 -62 -244 -31 -121 -58 -230 -61 -242 l-4 -23 509
0 509 0 6 30 c3 17 6 33 7 38 1 4 5 17 10 30 5 13 11 35 14 50 3 15 25 106 51
202 25 96 47 182 49 190 1 8 33 132 70 275 37 143 68 267 70 275 2 8 19 76 39
150 74 284 157 606 160 625 3 11 16 64 31 118 14 54 28 106 30 115 2 9 18 71
35 137 17 66 33 127 35 135 2 8 24 96 50 195 25 99 48 187 50 195 2 8 35 141
75 294 39 154 73 288 76 299 2 11 5 21 7 24 4 3 174 52 292 83 17 5 75 20 130
35 55 15 104 30 108 34 7 7 -72 229 -188 531 -18 47 -47 125 -66 174 l-33 89
18 71 c10 39 38 148 63 241 24 94 45 179 48 190 8 39 87 340 90 343 2 2 124 4
272 4 l269 0 16 36 c55 127 207 462 244 540 24 51 44 95 44 97 0 2 20 48 45
101 25 53 45 100 45 105 0 11 -3657 12 -3664 1z"/>
</g>
</svg>
