<svg width="24" height="24" viewBox="0 0 24 24" fill="none" xmlns="http://www.w3.org/2000/svg">
<path d="M20.79 8.67V8.69455L20.7978 8.71782C20.8231 8.79282 20.8405 8.8702 20.85 8.94874V8.949V8.94931V8.94963V8.94994V8.95025V8.95056V8.95087V8.95118V8.95148V8.95179V8.95209V8.95239V8.95269V8.95299V8.95329V8.95359V8.95388V8.95418V8.95447V8.95476V8.95505V8.95534V8.95563V8.95592V8.9562V8.95649V8.95677V8.95705V8.95733V8.95761V8.95789V8.95817V8.95844V8.95872V8.95899V8.95926V8.95953V8.9598V8.96007V8.96034V8.96061V8.96087V8.96113V8.9614V8.96166V8.96192V8.96218V8.96244V8.96269V8.96295V8.9632V8.96346V8.96371V8.96396V8.96421V8.96446V8.9647V8.96495V8.9652V8.96544V8.96568V8.96592V8.96617V8.9664V8.96664V8.96688V8.96712V8.96735V8.96758V8.96782V8.96805V8.96828V8.96851V8.96874V8.96896V8.96919V8.96941V8.96964V8.96986V8.97008V8.9703V8.97052V8.97074V8.97096V8.97117V8.97139V8.9716V8.97182V8.97203V8.97224V8.97245V8.97266V8.97287V8.97307V8.97328V8.97348V8.97369V8.97389V8.97409V8.97429V8.97449V8.97469V8.97488V8.97508V8.97528V8.97547V8.97566V8.97586V8.97605V8.97624V8.97643V8.97661V8.9768V8.97699V8.97717V8.97736V8.97754V8.97772V8.9779V8.97808V8.97826V8.97844V8.97862V8.97879V8.97897V8.97914V8.97932V8.97949V8.97966V8.97983V8.98V8.98017V8.98034V8.9805V8.98067V8.98083V8.981V8.98116V8.98132V8.98148V8.98164V8.9818V8.98196V8.98212V8.98227V8.98243V8.98258V8.98274V8.98289V8.98304V8.98319V8.98334V8.98349V8.98364V8.98379V8.98393V8.98408V8.98422V8.98437V8.98451V8.98465V8.9848V8.98494V8.98507V8.98521V8.98535V8.98549V8.98562V8.98576V8.98589V8.98603V8.98616V8.98629V8.98642V8.98655V8.98668V8.98681V8.98694V8.98706V8.98719V8.98732V8.98744V8.98756V8.98769V8.98781V8.98793V8.98805V8.98817V8.98829V8.98841V8.98852V8.98864V8.98876V8.98887V8.98898V8.9891V8.98921V8.98932V8.98943V8.98954V8.98965V8.98976V8.98987V8.98997V8.99008V8.99019V8.99029V8.9904V8.9905V8.9906V8.9907V8.9908V8.9909V8.991V8.9911V8.9912V8.9913V8.99139V8.99149V8.99159V8.99168V8.99177V8.99187V8.99196V8.99205V8.99214V8.99223V8.99232V8.99241V8.9925V8.99259V8.99267V8.99276V8.99285V8.99293V8.99301V8.9931V8.99318V8.99326V8.99334V8.99343V8.99351V8.99359V8.99366V8.99374V8.99382V8.9939V8.99397V8.99405V8.99412V8.9942V8.99427V8.99435V8.99442V8.99449V8.99456V8.99463V8.9947V8.99477V8.99484V8.99491V8.99498V8.99504V8.99511V8.99517V8.99524V8.9953V8.99537V8.99543V8.99549V8.99556V8.99562V8.99568V8.99574V8.9958V8.99586V8.99592V8.99598V8.99603V8.99609V8.99615V8.9962V8.99626V8.99632V8.99637V8.99642V8.99648V8.99653V8.99658V8.99663V8.99669V8.99674V8.99679V8.99684V8.99688V8.99693V8.99698V8.99703V8.99708V8.99712V8.99717V8.99722V8.99726V8.9973V8.99735V8.99739V8.99744V8.99748V8.99752V8.99756V8.9976V8.99764V8.99769V8.99773V8.99776V8.9978V8.99784V8.99788V8.99792V8.99795V8.99799V8.99803V8.99806V8.9981V8.99813V8.99817V8.9982V8.99824V8.99827V8.9983V8.99834V8.99837V8.9984V8.99843V8.99846V8.99849V8.99852V8.99855V8.99858V8.99861V8.99864V8.99866V8.99869V8.99872V8.99875V8.99877V8.9988V8.99883V8.99885V8.99888V8.9989V8.99892V8.99895V8.99897V8.99899V8.99902V8.99904V8.99906V8.99908V8.99911V8.99913V8.99915V8.99917V8.99919V8.99921V8.99923V8.99925V8.99927V8.99928V8.9993V8.99932V8.99934V8.99935V8.99937V8.99939V8.9994V8.99942V8.99944V8.99945V8.99947V8.99948V8.99951V8.99954V8.99957V8.99959V8.99962V8.99964V8.99966V8.99968V8.99971V8.99973V8.99974V8.99976V8.99978V8.9998V8.99981V8.99983V8.99985V8.99987V8.99988V8.9999V8.99992V8.99993V8.99995V8.99997V8.99998V9V15C20.85 15.7559 20.5497 16.4808 20.0153 17.0153C19.4808 17.5497 18.7559 17.85 18 17.85H17H16.85V18V19C16.85 19.7559 16.5497 20.4808 16.0153 21.0153C15.4808 21.5497 14.7559 21.85 14 21.85H6C5.24413 21.85 4.51922 21.5497 3.98475 21.0153C3.45027 20.4808 3.15 19.7559 3.15 19V9C3.15 8.24413 3.45027 7.51922 3.98475 6.98475C4.51922 6.45027 5.24413 6.15 6 6.15H7H7.15V6V5C7.15 4.24413 7.45027 3.51922 7.98475 2.98475C8.51922 2.45027 9.24413 2.15 10 2.15H14.0403C14.1336 2.16266 14.2236 2.19325 14.3054 2.24012L14.3501 2.26576L14.4011 2.25851C14.4104 2.25719 14.4198 2.25664 14.4292 2.25687C14.5081 2.29648 14.5811 2.34728 14.6456 2.40774L20.6423 8.4044C20.7011 8.46727 20.7509 8.53806 20.79 8.61466V8.67ZM15.1061 5.30393L14.85 5.04787V5.41V7C14.85 7.305 14.9712 7.59751 15.1868 7.81317C15.4025 8.02884 15.695 8.15 16 8.15H17.59H17.9521L17.6961 7.89393L15.1061 5.30393ZM7.15 8V7.85H7H6C5.695 7.85 5.40249 7.97116 5.18683 8.18683C4.97116 8.40249 4.85 8.695 4.85 9V19C4.85 19.305 4.97116 19.5975 5.18683 19.8132C5.40249 20.0288 5.695 20.15 6 20.15H14C14.305 20.15 14.5975 20.0288 14.8132 19.8132C15.0288 19.5975 15.15 19.305 15.15 19V18V17.85H15H10C9.24413 17.85 8.51922 17.5497 7.98475 17.0153C7.45027 16.4808 7.15 15.7559 7.15 15V8ZM13.15 4V3.85H13H10C9.695 3.85 9.40249 3.97116 9.18683 4.18683C8.97116 4.40249 8.85 4.695 8.85 5V15C8.85 15.305 8.97116 15.5975 9.18683 15.8132C9.40249 16.0288 9.695 16.15 10 16.15H18C18.305 16.15 18.5975 16.0288 18.8132 15.8132C19.0288 15.5975 19.15 15.305 19.15 15V10V9.85H19H16C15.2441 9.85 14.5192 9.54973 13.9847 9.01525C13.4503 8.48078 13.15 7.75587 13.15 7V4Z" fill="#3772FF" stroke="white" stroke-width="0.3"/>
</svg>
