<svg width="15" height="15" viewBox="0 0 15 15" fill="none" xmlns="http://www.w3.org/2000/svg">
<path d="M6.25 5.9375C6.25 5.52159 6.69811 5 7.5 5C7.9514 5 8.32201 5.18116 8.53589 5.41845C8.767 5.67485 9.16219 5.69535 9.41859 5.46425C9.67498 5.23314 9.69549 4.83795 9.46438 4.58155C9.12389 4.20379 8.65319 3.93714 8.125 3.81873V3.125C8.125 2.77982 7.84518 2.5 7.5 2.5C7.15482 2.5 6.875 2.77982 6.875 3.125V3.82087C5.85523 4.05407 5 4.84554 5 5.9375C5 7.24748 6.23083 8.125 7.5 8.125C8.30189 8.125 8.7499 8.64659 8.7499 9.0625C8.7499 9.47841 8.30179 10 7.4999 10C7.04849 10 6.67789 9.81884 6.46401 9.58155C6.2329 9.32515 5.83771 9.30465 5.58131 9.53575C5.32492 9.76686 5.30441 10.1621 5.53551 10.4185C5.87603 10.7962 6.34677 11.0629 6.875 11.1813V11.875C6.875 12.2202 7.15482 12.5 7.5 12.5C7.84518 12.5 8.125 12.2202 8.125 11.875V11.1791C9.14473 10.9459 9.9999 10.1544 9.9999 9.0625C9.9999 7.75252 8.76917 6.875 7.5 6.875C6.69811 6.875 6.25 6.35341 6.25 5.9375Z" fill="#5D94D4"/>
<path fill-rule="evenodd" clip-rule="evenodd" d="M15 7.5C15 11.6421 11.6421 15 7.5 15C3.35786 15 0 11.6421 0 7.5C0 3.35786 3.35786 0 7.5 0C11.6421 0 15 3.35786 15 7.5ZM13.75 7.5C13.75 10.9518 10.9518 13.75 7.5 13.75C4.04822 13.75 1.25 10.9518 1.25 7.5C1.25 4.04822 4.04822 1.25 7.5 1.25C10.9518 1.25 13.75 4.04822 13.75 7.5Z" fill="#5D94D4"/>
</svg>
