<svg width="46" height="48" viewBox="0 0 46 48" fill="none" xmlns="http://www.w3.org/2000/svg">
<g filter="url(#filter0_b_68_1633)">
<rect width="46" height="48" rx="12" fill="#3772FF" fill-opacity="0.04"/>
<rect x="0.75" y="0.75" width="44.5" height="46.5" rx="11.25" stroke="#3772FF" stroke-width="1.5"/>
</g>
<path d="M17.856 19.13L11.892 24.072L17.856 29H15.238L10.716 25.234V29H8.91V19.13H10.716V22.91L15.238 19.13H17.856ZM25.7026 19.13H27.6346L24.0086 25.626V29H22.2026V25.626L18.5766 19.13H20.5086L22.8746 23.526V24.604H23.3366V23.526L25.7026 19.13ZM27.3638 24.058C27.3638 22.5927 27.8071 21.384 28.6938 20.432C29.5804 19.4707 30.7658 18.99 32.2498 18.99C33.5844 18.99 34.6671 19.3447 35.4978 20.054C36.3284 20.754 36.8184 21.7153 36.9678 22.938H35.1618C35.0498 22.1727 34.7371 21.5847 34.2238 21.174C33.7198 20.7633 33.0711 20.558 32.2778 20.558C31.2978 20.558 30.5324 20.8707 29.9818 21.496C29.4404 22.112 29.1698 22.966 29.1698 24.058C29.1698 25.15 29.4404 26.0087 29.9818 26.634C30.5324 27.2593 31.2978 27.572 32.2778 27.572C33.0711 27.572 33.7198 27.3667 34.2238 26.956C34.7371 26.536 35.0498 25.9433 35.1618 25.178H36.9678C36.8184 26.41 36.3284 27.3807 35.4978 28.09C34.6671 28.79 33.5844 29.14 32.2498 29.14C30.7658 29.14 29.5804 28.664 28.6938 27.712C27.8071 26.7507 27.3638 25.5327 27.3638 24.058Z" fill="#3772FF"/>
<defs>
<filter id="filter0_b_68_1633" x="-240" y="-240" width="526" height="528" filterUnits="userSpaceOnUse" color-interpolation-filters="sRGB">
<feFlood flood-opacity="0" result="BackgroundImageFix"/>
<feGaussianBlur in="BackgroundImage" stdDeviation="120"/>
<feComposite in2="SourceAlpha" operator="in" result="effect1_backgroundBlur_68_1633"/>
<feBlend mode="normal" in="SourceGraphic" in2="effect1_backgroundBlur_68_1633" result="shape"/>
</filter>
</defs>
</svg>
