<svg width="22" height="22" viewBox="0 0 22 22" fill="none" xmlns="http://www.w3.org/2000/svg">
<path d="M13.4164 2.21605L18.9131 7.71271C18.9655 7.76871 19.0099 7.83167 19.045 7.89977V7.94748V7.97203L19.0528 7.9953C19.0756 8.063 19.0914 8.13284 19.1 8.20374V8.20381V8.20409V8.20438V8.20466V8.20494V8.20522V8.20551V8.20578V8.20606V8.20634V8.20661V8.20689V8.20716V8.20743V8.20771V8.20798V8.20824V8.20851V8.20878V8.20904V8.20931V8.20957V8.20983V8.21009V8.21035V8.21061V8.21087V8.21112V8.21138V8.21163V8.21189V8.21214V8.21239V8.21264V8.21289V8.21313V8.21338V8.21362V8.21387V8.21411V8.21435V8.21459V8.21483V8.21507V8.21531V8.21555V8.21578V8.21602V8.21625V8.21648V8.21671V8.21694V8.21717V8.2174V8.21763V8.21785V8.21808V8.2183V8.21852V8.21874V8.21896V8.21918V8.2194V8.21962V8.21984V8.22005V8.22027V8.22048V8.22069V8.2209V8.22111V8.22132V8.22153V8.22174V8.22194V8.22215V8.22235V8.22256V8.22276V8.22296V8.22316V8.22336V8.22356V8.22375V8.22395V8.22414V8.22434V8.22453V8.22472V8.22492V8.22511V8.2253V8.22548V8.22567V8.22586V8.22604V8.22623V8.22641V8.22659V8.22678V8.22696V8.22714V8.22732V8.22749V8.22767V8.22785V8.22802V8.2282V8.22837V8.22854V8.22871V8.22888V8.22905V8.22922V8.22939V8.22956V8.22972V8.22989V8.23005V8.23022V8.23038V8.23054V8.2307V8.23086V8.23102V8.23118V8.23133V8.23149V8.23165V8.2318V8.23195V8.23211V8.23226V8.23241V8.23256V8.23271V8.23286V8.23301V8.23315V8.2333V8.23344V8.23359V8.23373V8.23387V8.23401V8.23416V8.2343V8.23444V8.23457V8.23471V8.23485V8.23498V8.23512V8.23525V8.23539V8.23552V8.23565V8.23578V8.23591V8.23604V8.23617V8.2363V8.23643V8.23655V8.23668V8.2368V8.23693V8.23705V8.23717V8.23729V8.23741V8.23753V8.23765V8.23777V8.23789V8.23801V8.23812V8.23824V8.23835V8.23847V8.23858V8.23869V8.2388V8.23892V8.23903V8.23914V8.23924V8.23935V8.23946V8.23957V8.23967V8.23978V8.23988V8.23999V8.24009V8.24019V8.24029V8.24039V8.24049V8.24059V8.24069V8.24079V8.24089V8.24098V8.24108V8.24118V8.24127V8.24136V8.24146V8.24155V8.24164V8.24173V8.24182V8.24191V8.242V8.24209V8.24218V8.24227V8.24235V8.24244V8.24253V8.24261V8.24269V8.24278V8.24286V8.24294V8.24302V8.2431V8.24319V8.24326V8.24334V8.24342V8.2435V8.24358V8.24365V8.24373V8.2438V8.24388V8.24395V8.24403V8.2441V8.24417V8.24424V8.24431V8.24439V8.24446V8.24452V8.24459V8.24466V8.24473V8.2448V8.24486V8.24493V8.24499V8.24506V8.24512V8.24519V8.24525V8.24531V8.24537V8.24544V8.2455V8.24556V8.24562V8.24568V8.24573V8.24579V8.24585V8.24591V8.24596V8.24602V8.24608V8.24613V8.24618V8.24624V8.24629V8.24635V8.2464V8.24645V8.2465V8.24655V8.2466V8.24665V8.2467V8.24675V8.2468V8.24685V8.24689V8.24694V8.24699V8.24703V8.24708V8.24712V8.24717V8.24721V8.24726V8.2473V8.24734V8.24739V8.24743V8.24747V8.24751V8.24755V8.24759V8.24763V8.24767V8.24771V8.24775V8.24778V8.24782V8.24786V8.24789V8.24793V8.24797V8.248V8.24804V8.24807V8.24811V8.24814V8.24817V8.24821V8.24824V8.24827V8.2483V8.24833V8.24836V8.24839V8.24842V8.24845V8.24848V8.24851V8.24854V8.24857V8.2486V8.24862V8.24865V8.24868V8.2487V8.24873V8.24876V8.24878V8.24881V8.24883V8.24886V8.24888V8.2489V8.24893V8.24895V8.24897V8.24899V8.24902V8.24904V8.24906V8.24908V8.2491V8.24912V8.24914V8.24916V8.24918V8.2492V8.24922V8.24924V8.24925V8.24927V8.24929V8.24931V8.24932V8.24934V8.24936V8.24937V8.24939V8.2494V8.24942V8.24943V8.24945V8.24948V8.24951V8.24953V8.24956V8.24958V8.24961V8.24963V8.24965V8.24967V8.24969V8.24971V8.24973V8.24975V8.24976V8.24978V8.24979V8.24981V8.24983V8.24985V8.24987V8.24988V8.2499V8.24992V8.24993V8.24995V8.24996V8.24998V13.75C19.1 14.4395 18.8261 15.1009 18.3385 15.5885C17.8509 16.0761 17.1896 16.35 16.5 16.35H15.5833H15.4333V16.5V17.4166C15.4333 18.1062 15.1594 18.7675 14.6718 19.2551C14.1842 19.7427 13.5229 20.0166 12.8333 20.0166H5.5C4.81044 20.0166 4.14912 19.7427 3.66152 19.2551C3.17393 18.7675 2.9 18.1062 2.9 17.4166V8.24998C2.9 7.56042 3.17393 6.8991 3.66152 6.4115C4.14912 5.92391 4.81044 5.64998 5.5 5.64998H6.41667H6.56667V5.49998V4.58331C6.56667 3.89375 6.84059 3.23243 7.32819 2.74484C7.81578 2.25724 8.4771 1.98331 9.16667 1.98331H12.8695C12.9531 1.99477 13.0338 2.02224 13.107 2.06427L13.1517 2.0899L13.2028 2.08266C13.2097 2.08167 13.2167 2.0812 13.2237 2.08123C13.294 2.11678 13.3589 2.16217 13.4164 2.21605ZM13.8561 4.85308L13.6 4.59701V4.95915V6.41665C13.6 6.69954 13.7124 6.97085 13.9124 7.17089C14.1125 7.37093 14.3838 7.48331 14.6667 7.48331H16.1242H16.4863L16.2302 7.22725L13.8561 4.85308ZM6.56667 7.33331V7.18331H6.41667H5.5C5.2171 7.18331 4.94579 7.29569 4.74575 7.49573C4.54571 7.69577 4.43333 7.96708 4.43333 8.24998V17.4166C4.43333 17.6995 4.54571 17.9709 4.74575 18.1709C4.94579 18.3709 5.2171 18.4833 5.5 18.4833H12.8333C13.1162 18.4833 13.3875 18.3709 13.5876 18.1709C13.7876 17.9709 13.9 17.6995 13.9 17.4166V16.5V16.35H13.75H9.16667C8.4771 16.35 7.81578 16.0761 7.32819 15.5885C6.84059 15.1009 6.56667 14.4395 6.56667 13.75V7.33331ZM12.0667 3.66665V3.51665H11.9167H9.16667C8.88377 3.51665 8.61246 3.62903 8.41242 3.82907C8.21238 4.0291 8.1 4.30042 8.1 4.58331V13.75C8.1 14.0329 8.21238 14.3042 8.41242 14.5042C8.61246 14.7043 8.88377 14.8166 9.16667 14.8166H16.5C16.7829 14.8166 17.0542 14.7043 17.2542 14.5042C17.4543 14.3042 17.5667 14.0329 17.5667 13.75V9.16665V9.01665H17.4167H14.6667C13.9771 9.01665 13.3158 8.74272 12.8282 8.25512C12.3406 7.76753 12.0667 7.10621 12.0667 6.41665V3.66665Z" fill="#F3BA2F" stroke="white" stroke-width="0.3"/>
</svg>
