<svg width="24" height="24" viewBox="0 0 24 24" fill="none" xmlns="http://www.w3.org/2000/svg">
<path d="M6.65115 18.3636C7.1649 18.3636 7.58138 17.9566 7.58138 17.4545C7.58138 16.9525 7.1649 16.5455 6.65115 16.5455C6.13739 16.5455 5.72092 16.9525 5.72092 17.4545C5.72092 17.9566 6.13739 18.3636 6.65115 18.3636Z" fill="#453204"/>
<path fill-rule="evenodd" clip-rule="evenodd" d="M18.0864 2.26629C18.3495 2.00915 18.7441 1.92999 19.0896 2.06505L21.4152 2.97414C21.8211 3.1328 22.0591 3.54626 21.9873 3.96766L21.5222 6.69493C21.4474 7.13329 21.0593 7.45457 20.6046 7.45457H19.6744V8.36366C19.6744 8.86574 19.2579 9.27275 18.7441 9.27275H17.8139V10.1818C17.8139 10.423 17.7159 10.6542 17.5414 10.8247L13.8512 14.4311C14.0086 14.9576 14.093 15.5146 14.093 16.0909C14.093 19.3544 11.3859 22 8.04649 22C4.70711 22 2 19.3544 2 16.0909C2 12.8274 4.70711 10.1818 8.04649 10.1818C8.63617 10.1818 9.20614 10.2643 9.74496 10.4181L18.0864 2.26629ZM15.9534 9.80529L12.9959 12.6957C12.5931 12.136 12.0934 11.6477 11.5207 11.254L18.9682 3.97582L20.029 4.39052L19.8166 5.63639H18.7441C18.2304 5.63639 17.8139 6.0434 17.8139 6.54548V7.45457H16.8837C16.3699 7.45457 15.9534 7.86159 15.9534 8.36366V9.80529ZM8.04649 20.1818C10.3584 20.1818 12.2325 18.3503 12.2325 16.0909C12.2325 13.8316 10.3584 12 8.04649 12C5.73461 12 3.86046 13.8316 3.86046 16.0909C3.86046 18.3503 5.73461 20.1818 8.04649 20.1818Z" fill="#453204"/>
</svg>
