<svg width="24" height="24" viewBox="0 0 24 24" fill="none" xmlns="http://www.w3.org/2000/svg">
<g id="Iconly/Light/Activity">
<g id="Lock">
<path id="Stroke 1" d="M14.867 10.1893V8.89976C14.867 7.39044 13.643 6.16641 12.1337 6.16641C10.6244 6.1598 9.39552 7.37783 9.38892 8.88775V8.89976V10.1893" stroke="white" stroke-width="1.5" stroke-linecap="round" stroke-linejoin="round"/>
<path id="Stroke 3" fill-rule="evenodd" clip-rule="evenodd" d="M14.4224 17.2775H9.83316C8.57549 17.2775 7.55566 16.2582 7.55566 15V12.424C7.55566 11.1657 8.57549 10.1465 9.83316 10.1465H14.4224C15.6801 10.1465 16.6999 11.1657 16.6999 12.424V15C16.6999 16.2582 15.6801 17.2775 14.4224 17.2775Z" stroke="white" stroke-width="1.5" stroke-linecap="round" stroke-linejoin="round"/>
</g>
<path id="Stroke 4" fill-rule="evenodd" clip-rule="evenodd" d="M16.5911 2C16.5911 2 7.37774 2.00435 7.36334 2.00435C4.051 2.02281 2 3.99565 2 7.00489V16.9951C2 20.0196 4.06661 22 7.40774 22C7.40774 22 16.6199 21.9967 16.6355 21.9967C19.9478 21.9783 22 20.0043 22 16.9951V7.00489C22 3.98045 19.9322 2 16.5911 2Z" stroke="white" stroke-width="1.5" stroke-linecap="round" stroke-linejoin="round"/>
</g>
</svg>
