<svg width="24" height="24" viewBox="0 0 24 24" fill="none" xmlns="http://www.w3.org/2000/svg">
<g id="Iconly/Light/Document">
<g id="Document">
<path id="Stroke 4" fill-rule="evenodd" clip-rule="evenodd" d="M16.5911 2C16.5911 2 7.37774 2.00435 7.36334 2.00435C4.051 2.02281 2 3.99565 2 7.00489V16.9951C2 20.0196 4.06661 22 7.40774 22C7.40774 22 16.6199 21.9967 16.6355 21.9967C19.9478 21.9783 22 20.0043 22 16.9951V7.00489C22 3.98045 19.9322 2 16.5911 2Z" stroke="#8F92A1" stroke-width="1.5" stroke-linecap="round" stroke-linejoin="round"/>
</g>
<g id="fi:database">
<path id="Vector" d="M17.25 12C17.25 12.9683 14.9167 13.75 12 13.75C9.08333 13.75 6.75 12.9683 6.75 12" stroke="#8F92A1" stroke-width="1.5" stroke-linecap="round" stroke-linejoin="round"/>
<path id="Vector_2" d="M12 9.66669C14.8995 9.66669 17.25 8.88319 17.25 7.91669C17.25 6.95019 14.8995 6.16669 12 6.16669C9.1005 6.16669 6.75 6.95019 6.75 7.91669C6.75 8.88319 9.1005 9.66669 12 9.66669Z" stroke="#8F92A1" stroke-width="1.5" stroke-linecap="round" stroke-linejoin="round"/>
<path id="Vector_3" d="M6.75 7.91669V16.0834C6.75 17.0517 9.08333 17.8334 12 17.8334C14.9167 17.8334 17.25 17.0517 17.25 16.0834V7.91669" stroke="#8F92A1" stroke-width="1.5" stroke-linecap="round" stroke-linejoin="round"/>
</g>
</g>
</svg>
