<svg width="15" height="15" viewBox="0 0 15 15" fill="none" xmlns="http://www.w3.org/2000/svg">
<path d="M14.1252 1.28872C14.097 1.18167 14.0409 1.08402 13.9627 1.00574C13.8844 0.927465 13.7867 0.871362 13.6797 0.843162C12.3976 0.510155 11.0475 0.546021 9.78486 0.946632C8.52224 1.34724 7.39844 2.09631 6.54285 3.10757L5.84601 3.93497L4.21801 3.54217C3.82223 3.40419 3.38988 3.41408 3.00081 3.57001C2.61175 3.72595 2.29225 4.01739 2.10131 4.39053L0.726196 6.82797C0.678014 6.91334 0.650593 7.00886 0.64615 7.10679C0.641707 7.20472 0.660367 7.30233 0.700621 7.39172C0.740875 7.48111 0.801594 7.55977 0.877871 7.62135C0.954148 7.68294 1.04384 7.72571 1.13971 7.74622L3.06018 8.1579C2.89749 8.65312 2.78133 9.16242 2.7132 9.6792C2.70084 9.77415 2.71046 9.87066 2.74131 9.96129C2.77215 10.0519 2.82341 10.1343 2.89111 10.202L4.82867 12.1395C4.88668 12.1976 4.95557 12.2436 5.03139 12.2751C5.1072 12.3065 5.18847 12.3227 5.27055 12.3227C5.28855 12.3227 5.30656 12.3217 5.32487 12.3202C5.85321 12.2727 6.37513 12.1701 6.8821 12.014L7.2844 13.8909C7.30496 13.9868 7.34776 14.0764 7.40936 14.1527C7.47095 14.2289 7.54961 14.2896 7.63898 14.3299C7.72836 14.3701 7.82594 14.3888 7.92386 14.3844C8.02178 14.38 8.11729 14.3526 8.20268 14.3045L10.6435 12.9278C10.987 12.7191 11.2553 12.4066 11.4098 12.0355C11.5643 11.6644 11.5968 11.2538 11.5028 10.863L11.0849 9.13862L11.8581 8.42767C12.8731 7.57448 13.6251 6.45061 14.0264 5.18681C14.4278 3.92301 14.462 2.57123 14.1252 1.28872V1.28872ZM2.23224 6.70193L3.20483 4.97708C3.26524 4.85998 3.36816 4.77043 3.49249 4.7268C3.61682 4.68316 3.75313 4.68874 3.87347 4.7424L4.94685 5.00252L4.5406 5.48489C4.15545 5.9465 3.82233 6.44914 3.54728 6.98372L2.23224 6.70193ZM10.0261 11.8408L8.32873 12.7981L8.0603 11.5452C8.60443 11.2738 9.11139 10.9336 9.56866 10.5328L10.0334 10.1055L10.2855 11.1459C10.3182 11.2743 10.3109 11.4097 10.2645 11.5339C10.2182 11.6581 10.135 11.7652 10.0261 11.8408V11.8408ZM11.035 7.48747L8.73218 9.60386C7.82065 10.3922 6.69632 10.8932 5.50067 11.044L3.99798 9.5413C4.19981 8.34254 4.7178 7.21933 5.49853 6.28755L6.5475 5.04212C6.56497 5.02384 6.58128 5.00448 6.59633 4.98414L7.49316 3.91934C8.15627 3.13615 9.01535 2.54297 9.98267 2.20037C10.95 1.85777 11.9909 1.77802 12.9991 1.96927C13.195 2.98065 13.1161 4.02606 12.7707 4.99659C12.4252 5.96713 11.8259 6.82728 11.035 7.48747V7.48747ZM10.4582 3.63512C10.2727 3.63512 10.0915 3.6901 9.93731 3.79311C9.78314 3.89613 9.66298 4.04255 9.59202 4.21385C9.52106 4.38516 9.5025 4.57366 9.53867 4.75551C9.57485 4.93737 9.66413 5.10442 9.79525 5.23553C9.92636 5.36664 10.0934 5.45593 10.2753 5.4921C10.4571 5.52828 10.6456 5.50971 10.8169 5.43875C10.9882 5.3678 11.1346 5.24764 11.2377 5.09346C11.3407 4.93929 11.3957 4.75804 11.3957 4.57262C11.3957 4.4495 11.3714 4.32758 11.3243 4.21383C11.2772 4.10009 11.2081 3.99673 11.1211 3.90967C11.034 3.82262 10.9307 3.75356 10.8169 3.70645C10.7032 3.65934 10.5813 3.6351 10.4581 3.6351L10.4582 3.63512Z" fill="#5D94D4"/>
</svg>
